<svg xmlns="http://www.w3.org/2000/svg" width="110" height="16" fill="none" viewBox="0 0 110 16">
  <path fill="#EE324B" d="M11.964 2.96h-1.848v-.418c0-.22-.015-.36-.044-.418-.015-.073-.088-.161-.22-.264-.132-.103-.235-.161-.308-.176-.073-.03-.242-.044-.506-.044H3.626c-.264 0-.433.015-.506.044-.073.015-.176.073-.308.176s-.213.19-.242.264a2.322 2.322 0 00-.022.418v10.516c0 .22.007.367.022.44.03.059.11.14.242.242.132.103.235.169.308.198.073.015.242.022.506.022h5.412c.264 0 .433-.007.506-.022.073-.03.176-.095.308-.198.132-.103.205-.183.22-.242.03-.073.044-.22.044-.44V9.12H6.772V7.58h5.192v5.94c0 .44-.176.807-.528 1.1l-.528.44c-.352.293-.704.44-1.056.44h-7.04c-.352 0-.704-.147-1.056-.44l-.528-.44C.876 14.327.7 13.96.7 13.52V2.08c0-.44.176-.807.528-1.1l.528-.44C2.108.247 2.46.1 2.812.1h7.04c.352 0 .704.147 1.056.44l.528.44c.352.293.528.66.528 1.1v.88zm2.74 12.54L19.983.1h2.595l5.39 15.4h-1.848l-1.143-3.19H17.65l-1.1 3.19h-1.847zm6.622-14.08h-.088c0 .176-.052.389-.154.638l-2.97 8.822h6.401L21.48 2.058c-.103-.25-.154-.462-.154-.638zm11.706 0l-.066.022c.103.352.154.704.154 1.056V15.5h-1.848V.1h2.992l4.708 12.298c.088.25.132.455.132.616h.088c0-.161.044-.367.132-.616L44.054.1h2.97v15.4h-1.848V2.498c0-.352.052-.704.154-1.056l-.066-.022-5.412 14.08h-1.408a554.168 554.168 0 01-1.936-4.818c-.601-1.555-1.1-2.853-1.496-3.894a733.47 733.47 0 01-1.034-2.772 845.543 845.543 0 00-.946-2.596zm28.249 12.54v1.54h-9.856V.1h9.856v1.54h-8.008v5.28h6.776v1.54h-6.776v5.5h8.008zm13.355 0v1.54h-9.504V.1h1.848v13.86h7.656zM76.712.1h1.848v15.4h-1.848V.1zm16.152 12.54l.066-.022a3.754 3.754 0 01-.154-1.056V.1h1.848v15.4h-1.848L84.724 3.136l-.066.022c.102.352.154.704.154 1.056V15.5h-1.848V.1h1.848l8.052 12.54zM99.034.1h1.848v6.82h2.376l3.322-5.346c.205-.352.469-.638.792-.858l.418-.286c.235-.161.396-.257.484-.286.103-.03.286-.044.55-.044h.484v.858c0 .337-.022.55-.066.638-.044.088-.198.205-.462.352l-.242.132c-.235.132-.389.235-.462.308a3.479 3.479 0 00-.352.484l-2.64 4.268c-.22.367-.403.55-.55.55v.088c.147 0 .33.176.55.528l2.794 4.422c.147.25.257.41.33.484.088.073.249.176.484.308l.242.132c.264.147.418.264.462.352.044.088.066.3.066.638v.858h-.616c-.264 0-.447-.015-.55-.044-.088-.03-.249-.125-.484-.286l-.418-.286a4.35 4.35 0 01-.44-.352 5.212 5.212 0 01-.352-.528L103.17 8.46h-2.288v7.04h-1.848V.1z"/>
</svg>
