<svg xmlns="http://www.w3.org/2000/svg" width="78" height="41" fill="none" viewBox="0 0 78 41">
  <path fill="#EE324B" d="M49.344 14.491c-.739.32-1.52.532-2.32.627a4 4 0 001.777-2.198 8.109 8.109 0 01-2.565.964 4.067 4.067 0 00-2.95-1.26c-2.232 0-4.038 1.78-4.038 3.975-.002.305.033.61.104.907a11.512 11.512 0 01-8.326-4.155 3.924 3.924 0 00-.55 1.997c0 1.378.72 2.597 1.805 3.31a4 4 0 01-1.836-.496v.05c0 1.927 1.394 3.53 3.24 3.896-.347.092-.705.139-1.064.139a3.87 3.87 0 01-.76-.074c.514 1.58 2.007 2.728 3.776 2.76a8.186 8.186 0 01-5.98 1.645 11.43 11.43 0 006.182 1.797c7.439 0 11.502-6.058 11.502-11.312 0-.173-.004-.345-.012-.513a8.145 8.145 0 002.015-2.059z"/>
  <path fill="#EE324B" stroke="#EE324B" stroke-width="2" d="M2 40L26.241 1H76L51.759 40H2z"/>
  <g clip-path="url(#clip0_58_829)">
    <path fill="#fff" d="M39 10c-5.798 0-10.5 4.702-10.5 10.5S33.202 31 39 31s10.5-4.702 10.5-10.5S44.8 10 39 10zm-5.32 10.853l.045-.072 2.732-4.273c.04-.061.134-.055.164.012.455 1.023.85 2.296.665 3.088-.077.325-.294.766-.537 1.173a2.104 2.104 0 01-.103.175.093.093 0 01-.078.04h-2.807a.093.093 0 01-.08-.143zm12.174 1.47c0 .04-.023.073-.056.088-.212.09-.937.424-1.237.842-.769 1.069-1.355 2.598-2.667 2.598H36.42a3.516 3.516 0 01-3.511-3.524v-.063c0-.05.042-.092.095-.092h3.049c.06 0 .105.054.1.115-.023.198.015.401.11.586.18.367.556.596.961.596h1.51v-1.178h-1.493a.097.097 0 01-.077-.15 11.543 11.543 0 00.599-.947c.136-.24.268-.497.375-.753.021-.046.038-.094.057-.14.03-.082.059-.16.08-.236.02-.065.04-.132.056-.195.05-.218.072-.45.072-.689 0-.094-.005-.193-.013-.285-.004-.103-.017-.206-.03-.31-.008-.09-.025-.18-.041-.272a5.682 5.682 0 00-.087-.41l-.012-.052c-.025-.095-.048-.183-.078-.277a10.346 10.346 0 00-.288-.85 4.56 4.56 0 00-.123-.312c-.063-.155-.129-.296-.187-.428a3.118 3.118 0 01-.082-.172c-.03-.063-.059-.126-.09-.187-.021-.046-.047-.09-.063-.132l-.185-.34c-.026-.047.017-.104.067-.089l1.155.313h.008l.152.044.168.046.06.017v-.684c0-.332.265-.601.595-.601.163 0 .313.067.418.176.107.11.174.259.174.425v1.018l.124.034c.008.004.019.008.027.014.03.021.074.055.128.097.044.034.09.076.145.12a9.058 9.058 0 01.502.44c.187.175.397.379.599.605l.167.198c.055.07.116.136.166.204.07.09.141.184.206.283.03.046.065.095.093.14.084.125.155.253.224.38.03.06.06.125.084.188a2.6 2.6 0 01.177.523.57.57 0 01.025.115v.009a.97.97 0 01.02.161 1.8 1.8 0 01-.092.765c-.027.073-.052.149-.086.222-.065.15-.14.3-.23.44-.03.052-.066.106-.1.159-.037.054-.077.107-.11.157a3.404 3.404 0 01-.152.194c-.046.063-.092.125-.145.182-.071.086-.14.166-.214.244-.042.05-.088.103-.136.149-.047.052-.095.099-.137.14-.073.074-.132.129-.183.177l-.12.107a.089.089 0 01-.062.025h-.92v1.178h1.157c.258 0 .504-.09.703-.26.068-.059.364-.315.715-.701a.083.083 0 01.044-.028l3.194-.924c.06-.017.12.028.12.09v.677z"/>
  </g>
  <defs>
    <clipPath id="clip0_58_829">
      <path fill="#fff" d="M0 0h21v21H0z" transform="translate(28.5 10)"/>
    </clipPath>
  </defs>
</svg>
