<svg xmlns="http://www.w3.org/2000/svg" width="158" height="16" fill="none" viewBox="0 0 158 16">
  <path fill="#EE324B" d="M8.994 9.142l-.484-.396c-.176-.147-.3-.227-.374-.242-.073-.03-.22-.044-.44-.044H2.548v5.5H8.29c.264 0 .433-.007.506-.022.073-.03.176-.095.308-.198.132-.103.205-.183.22-.242.03-.073.044-.22.044-.44V9.934c0-.235-.015-.389-.044-.462-.03-.073-.14-.183-.33-.33zM2.548 1.64v5.28h4.774c.264 0 .433-.007.506-.022.088-.03.205-.103.352-.22l.572-.462c.176-.147.279-.257.308-.33.03-.073.044-.235.044-.484v-2.86c0-.22-.015-.36-.044-.418-.015-.073-.088-.161-.22-.264-.132-.103-.235-.161-.308-.176-.073-.03-.242-.044-.506-.044H2.548zm6.688 5.808v.11c.176 0 .381.095.616.286l1.056.858c.132.117.213.227.242.33.044.088.066.264.066.528v3.96c0 .44-.176.807-.528 1.1a10.19 10.19 0 00-.528.44c-.352.293-.704.44-1.056.44H.7V.1h8.14c.352 0 .704.147 1.056.44l.528.44c.352.293.528.66.528 1.1v3.762a.918.918 0 01-.352.748l-.748.572c-.235.19-.44.286-.616.286zm15.341 6.512v1.54h-9.504V.1h1.848v13.86h7.656zm.976 1.54L30.833.1h2.596l5.39 15.4h-1.848l-1.144-3.19h-7.326l-1.1 3.19h-1.848zm6.622-14.08h-.088c0 .176-.051.389-.154.638l-2.97 8.822h6.402L32.33 2.058c-.102-.25-.154-.462-.154-.638zM53.43 2.96h-1.848v-.418c0-.22-.015-.36-.044-.418-.015-.073-.088-.161-.22-.264-.132-.103-.235-.161-.308-.176-.073-.03-.242-.044-.506-.044h-5.456c-.264 0-.433.015-.506.044-.074.015-.176.073-.308.176s-.213.19-.242.264a2.319 2.319 0 00-.022.418v10.516c0 .22.007.367.022.44.03.059.11.14.242.242.132.103.234.169.308.198.073.015.242.022.506.022h5.456c.264 0 .433-.007.506-.022.073-.03.176-.095.308-.198.132-.103.205-.183.22-.242.03-.073.044-.22.044-.44v-.418h1.848v.88c0 .44-.176.807-.528 1.1l-.528.44c-.352.293-.704.44-1.056.44h-7.084c-.352 0-.704-.147-1.056-.44l-.528-.44c-.352-.293-.528-.66-.528-1.1V2.08c0-.44.176-.807.528-1.1l.528-.44c.352-.293.704-.44 1.056-.44h7.084c.352 0 .704.147 1.056.44l.528.44c.352.293.528.66.528 1.1v.88zM56.71.1h1.848v6.82h2.376l3.322-5.346c.205-.352.47-.638.792-.858l.418-.286c.234-.161.396-.257.484-.286.102-.03.286-.044.55-.044h.484v.858c0 .337-.022.55-.066.638-.044.088-.198.205-.462.352l-.242.132c-.235.132-.389.235-.462.308-.074.073-.19.235-.352.484L62.76 7.14c-.22.367-.404.55-.55.55v.088c.146 0 .33.176.55.528l2.794 4.422c.146.25.256.41.33.484.088.073.25.176.484.308l.242.132c.264.147.418.264.462.352.044.088.066.3.066.638v.858h-.616c-.264 0-.448-.015-.55-.044-.088-.03-.25-.125-.484-.286l-.418-.286a4.386 4.386 0 01-.44-.352 5.194 5.194 0 01-.352-.528L60.846 8.46h-2.288v7.04H56.71V.1zm15.38 1.32l-.065.022c.102.352.154.704.154 1.056V15.5H70.33V.1h2.992l4.708 12.298c.088.25.132.455.132.616h.088c0-.161.044-.367.132-.616L83.113.1h2.97v15.4h-1.848V2.498c0-.352.051-.704.154-1.056l-.066-.022L78.91 15.5h-1.408a554.168 554.168 0 01-1.936-4.818c-.601-1.555-1.1-2.853-1.496-3.894a733.47 733.47 0 01-1.034-2.772 845.543 845.543 0 00-.946-2.596zM89.384 15.5L94.663.1h2.596l5.39 15.4h-1.848l-1.144-3.19h-7.326l-1.1 3.19h-1.848zm6.622-14.08h-.088c0 .176-.051.389-.154.638l-2.97 8.822h6.402L96.16 2.058c-.103-.25-.154-.462-.154-.638zM105.952.1h8.14c.352 0 .704.147 1.056.44l.528.44c.352.293.528.66.528 1.1v5.148c0 .455-.183.836-.55 1.144l-.55.462c-.323.264-.66.396-1.012.396h-1.232l2.266 3.52c.161.25.271.41.33.484.073.059.227.154.462.286l.242.132c.264.147.418.264.462.352.044.088.066.3.066.638v.858h-.55c-.264 0-.447-.015-.55-.044-.088-.03-.249-.125-.484-.286l-.418-.286a2.611 2.611 0 01-.792-.858l-2.926-4.686H107.8v6.16h-1.848V.1zm1.848 1.54V7.8h5.478c.264 0 .433-.007.506-.022.073-.03.176-.095.308-.198.132-.103.205-.183.22-.242.029-.073.044-.22.044-.44V2.542c0-.22-.015-.36-.044-.418-.015-.073-.088-.161-.22-.264-.132-.103-.235-.161-.308-.176-.073-.03-.242-.044-.506-.044H107.8zM120.755.1h1.848v6.82h2.376l3.322-5.346c.205-.352.469-.638.792-.858l.418-.286c.234-.161.396-.257.484-.286.102-.03.286-.044.55-.044h.484v.858c0 .337-.022.55-.066.638-.044.088-.198.205-.462.352l-.242.132c-.235.132-.389.235-.462.308-.074.073-.191.235-.352.484l-2.64 4.268c-.22.367-.404.55-.55.55v.088c.146 0 .33.176.55.528l2.794 4.422c.146.25.256.41.33.484.088.073.249.176.484.308l.242.132c.264.147.418.264.462.352.044.088.066.3.066.638v.858h-.616c-.264 0-.448-.015-.55-.044-.088-.03-.25-.125-.484-.286l-.418-.286a4.35 4.35 0 01-.44-.352 5.042 5.042 0 01-.352-.528l-3.432-5.544h-2.288v7.04h-1.848V.1zm23.477 13.86v1.54h-9.856V.1h9.856v1.54h-8.008v5.28H143v1.54h-6.776v5.5h8.008zM145.751.1h11.616v1.54h-4.884V15.5h-1.848V1.64h-4.884V.1z"/>
</svg>
