<svg xmlns="http://www.w3.org/2000/svg" width="115" height="41" fill="none" viewBox="0 0 115 41">
  <path fill="#FFF3E9" stroke="#EE324B" stroke-width="2" d="M2 40L26.241 1H113L88.759 40H2z"/>
  <path fill="#EE324B" d="M38.88 15.76l-.048.016c.075.256.112.512.112.768V26H37.6V14.8h2.176l3.424 8.944c.064.181.096.33.096.448h.064c0-.117.032-.267.096-.448l3.44-8.944h2.16V26h-1.344v-9.456c0-.256.037-.512.112-.768l-.048-.016L43.84 26h-1.024c-.49-1.205-.96-2.373-1.408-3.504-.437-1.13-.8-2.075-1.088-2.832-.288-.768-.539-1.44-.752-2.016a574.173 574.173 0 00-.688-1.888zm13.376-.96H53.6V26h-1.344V14.8zm11.747 9.12l.048-.016a2.734 2.734 0 01-.112-.768V14.8h1.344V26H63.94l-5.856-8.992-.048.016c.075.256.112.512.112.768V26h-1.344V14.8h1.344l5.856 9.12zm2.792-9.12h8.448v1.12H71.69V26h-1.344V15.92h-3.552V14.8z"/>
  <path fill="#EE324B" d="M38.88 15.76l.474-.158-.158-.475-.474.159.158.474zm-.048.016l-.158-.474-.457.152.135.462.48-.14zM38.944 26v.5h.5V26h-.5zM37.6 26h-.5v.5h.5V26zm0-11.2v-.5h-.5v.5h.5zm2.176 0l.467-.179-.123-.321h-.344v.5zm3.424 8.944l.472-.166-.005-.013-.467.179zm.096.448h-.5v.5h.5v-.5zm.064 0v.5h.5v-.5h-.5zm.096-.448l-.467-.18-.005.014.472.166zm3.44-8.944v-.5h-.343l-.124.32.467.18zm2.16 0h.5v-.5h-.5v.5zm0 11.2v.5h.5V26h-.5zm-1.344 0h-.5v.5h.5V26zm.112-10.224l.48.14.135-.462-.457-.152-.158.474zm-.048-.016l.158-.474-.453-.152-.172.447.467.179zM43.84 26v.5h.343l.124-.32-.467-.18zm-1.024 0l-.463.189.127.311h.336V26zm-1.408-3.504l-.466.18.001.004.465-.184zm-1.088-2.832l-.468.176v.002l.468-.178zm-.752-2.016l-.47.17.001.004.469-.174zm-.496-1.36l.47-.172-.47.172zm-.35-1.002l-.048.016.316.948.048-.016-.316-.948zm-.37.63c.062.212.092.421.092.628h1a3.23 3.23 0 00-.132-.908l-.96.28zm.092.628V26h1v-9.456h-1zm.5 8.956H37.6v1h1.344v-1zm-.844.5V14.8h-1V26h1zm-.5-10.7h2.176v-1H37.6v1zm1.709-.321l3.424 8.944.934-.358-3.424-8.944-.934.358zm3.42 8.931a.967.967 0 01.067.282h1c0-.199-.052-.41-.124-.614l-.944.332zm.567.782h.064v-1h-.064v1zm.564-.5c0-.036.012-.124.068-.282l-.944-.332a1.892 1.892 0 00-.124.614h1zm.063-.268l3.44-8.944-.934-.36-3.44 8.944.934.36zm2.973-8.624h2.16v-1h-2.16v1zm1.66-.5V26h1V14.8h-1zm.5 10.7h-1.344v1h1.344v-1zm-.844.5v-9.456h-1V26h1zm0-9.456c0-.207.03-.416.092-.628l-.96-.28a3.23 3.23 0 00-.132.908h1zm-.23-1.242l-.048-.016-.316.948.048.016.316-.948zm-.673.279l-3.936 10.24.934.358 3.936-10.24-.934-.358zM43.84 25.5h-1.024v1h1.024v-1zm-.56.311c-.491-1.203-.96-2.37-1.407-3.5l-.93.37c.449 1.131.919 2.3 1.41 3.508l.926-.378zm-1.406-3.495c-.437-1.13-.8-2.074-1.087-2.83l-.934.356c.288.758.651 1.703 1.089 2.834l.932-.36zm-1.086-2.828c-.288-.767-.538-1.439-.751-2.014l-.938.348c.214.576.465 1.25.753 2.018l.936-.352zm-.75-2.01c-.213-.588-.379-1.042-.497-1.362l-.938.344.495 1.359.94-.342zm-.497-1.362a176.507 176.507 0 01-.172-.474l-.011-.03-.004-.01-.948.316c.013.041.081.228.197.542l.938-.344zM52.256 14.8v-.5h-.5v.5h.5zm1.344 0h.5v-.5h-.5v.5zm0 11.2v.5h.5V26h-.5zm-1.344 0h-.5v.5h.5V26zm0-10.7H53.6v-1h-1.344v1zm.844-.5V26h1V14.8h-1zm.5 10.7h-1.344v1H53.6v-1zm-.844.5V14.8h-1V26h1zm11.247-2.08l-.42.27.21.327.368-.123-.158-.474zm.048-.016l.158.474.457-.152-.135-.462-.48.14zM63.94 14.8v-.5h-.5v.5h.5zm1.344 0h.5v-.5h-.5v.5zm0 11.2v.5h.5V26h-.5zm-1.344 0l-.419.273.148.227h.271V26zm-5.856-8.992l.42-.273-.212-.323-.366.122.158.474zm-.048.016l-.158-.474-.457.152.135.462.48-.14zM58.147 26v.5h.5V26h-.5zm-1.344 0h-.5v.5h.5V26zm0-11.2v-.5h-.5v.5h.5zm1.344 0l.42-.27-.147-.23h-.273v.5zm6.014 9.594l.048-.016-.316-.948-.048.016.316.948zm.37-.63a2.233 2.233 0 01-.092-.628h-1c0 .305.045.608.132.908l.96-.28zm-.092-.628V14.8h-1v8.336h1zm-.5-7.836h1.344v-1H63.94v1zm.844-.5V26h1V14.8h-1zm.5 10.7H63.94v1h1.344v-1zm-.925.227l-5.856-8.992-.838.546 5.856 8.992.838-.546zm-6.433-9.193l-.048.016.316.948.048-.016-.316-.948zm-.37.63c.062.212.092.421.092.628h1a3.23 3.23 0 00-.132-.908l-.96.28zm.092.628V26h1v-8.208h-1zm.5 7.708h-1.344v1h1.344v-1zm-.844.5V14.8h-1V26h1zm-.5-10.7h1.344v-1h-1.344v1zm.923-.23l5.856 9.12.842-.54-5.856-9.12-.842.54zm9.069-.27v-.5h-.5v.5h.5zm8.448 0h.5v-.5h-.5v.5zm0 1.12v.5h.5v-.5h-.5zm-3.552 0v-.5h-.5v.5h.5zm0 10.08v.5h.5V26h-.5zm-1.344 0h-.5v.5h.5V26zm0-10.08h.5v-.5h-.5v.5zm-3.552 0h-.5v.5h.5v-.5zm0-.62h8.448v-1h-8.448v1zm7.948-.5v1.12h1V14.8h-1zm.5.62H71.69v1h3.552v-1zm-4.052.5V26h1V15.92h-1zm.5 9.58h-1.344v1h1.344v-1zm-.844.5V15.92h-1V26h1zm-.5-10.58h-3.552v1h3.552v-1zm-3.052.5V14.8h-1v1.12h1z"/>
</svg>
