<svg xmlns="http://www.w3.org/2000/svg" width="59" height="16" fill="none" viewBox="0 0 59 16">
  <path fill="#EE324B" d="M.368.1h11.616v1.54H7.1V15.5H5.252V1.64H.368V.1zm23.553 13.86v1.54h-9.856V.1h9.856v1.54h-8.008v5.28h6.776v1.54h-6.776v5.5h8.008zm2.751 1.54L31.952.1h2.596l5.39 15.4H38.09l-1.144-3.19H29.62l-1.1 3.19h-1.848zm6.622-14.08h-.088c0 .176-.051.389-.154.638l-2.97 8.822h6.402l-3.036-8.822c-.102-.25-.154-.462-.154-.638zm11.707 0l-.066.022c.103.352.154.704.154 1.056V15.5h-1.848V.1h2.992l4.708 12.298c.088.25.132.455.132.616h.088c0-.161.044-.367.132-.616L56.023.1h2.97v15.4h-1.848V2.498c0-.352.051-.704.154-1.056l-.066-.022-5.412 14.08h-1.408a554.168 554.168 0 01-1.936-4.818c-.601-1.555-1.1-2.853-1.496-3.894a733.47 733.47 0 01-1.034-2.772 796.578 796.578 0 00-.946-2.596z"/>
</svg>
