<svg xmlns="http://www.w3.org/2000/svg" width="78" height="41" fill="none" viewBox="0 0 78 41">
  <path fill="#EE324B" d="M49.344 14.491c-.739.32-1.52.532-2.32.627a4 4 0 001.777-2.198 8.109 8.109 0 01-2.565.964 4.067 4.067 0 00-2.95-1.26c-2.232 0-4.038 1.78-4.038 3.975-.002.305.033.61.104.907a11.512 11.512 0 01-8.326-4.155 3.924 3.924 0 00-.55 1.997c0 1.378.72 2.597 1.805 3.31a4 4 0 01-1.836-.496v.05c0 1.927 1.394 3.53 3.24 3.896-.347.092-.705.139-1.064.139a3.87 3.87 0 01-.76-.074c.514 1.58 2.007 2.728 3.776 2.76a8.186 8.186 0 01-5.98 1.645 11.43 11.43 0 006.182 1.797c7.439 0 11.502-6.058 11.502-11.312 0-.173-.004-.345-.012-.513a8.145 8.145 0 002.015-2.059z"/>
  <path fill="#EE324B" stroke="#EE324B" stroke-width="2" d="M2 40L26.241 1H76L51.759 40H2z"/>
  <g>
    <path fill="#fff" d="M47.35 16.216c.013.185.013.37.013.557 0 5.693-4.334 12.259-12.259 12.259v-.003a12.197 12.197 0 01-6.604-1.932 8.651 8.651 0 006.376-1.786 4.314 4.314 0 01-4.025-2.992 4.295 4.295 0 001.945-.074 4.309 4.309 0 01-3.456-4.223v-.054c.6.333 1.27.518 1.956.539a4.314 4.314 0 01-1.334-5.753 12.228 12.228 0 008.88 4.501 4.311 4.311 0 017.342-3.93 8.645 8.645 0 002.736-1.045 4.325 4.325 0 01-1.894 2.383 8.57 8.57 0 002.474-.679 8.752 8.752 0 01-2.15 2.232z"/>
  </g>
</svg>
