<svg xmlns="http://www.w3.org/2000/svg" width="71" height="16" fill="none" viewBox="0 0 71 16">
  <path fill="#EE324B" d="M7.1 14.136h.088c0-.088.044-.279.132-.572L11.5.1h1.958L8.354 15.5h-2.42L.83.1h1.958l4.18 13.464c.088.293.132.484.132.572zM15.977.1h1.848v15.4h-1.848V.1zM29.27 8.46h-5.258c-.352 0-.704-.147-1.056-.44l-.594-.506c-.308-.25-.462-.543-.462-.88V2.08c0-.44.176-.807.528-1.1l.528-.44c.352-.293.704-.44 1.056-.44h5.852c.352 0 .704.147 1.056.44l.528.44c.352.293.528.66.528 1.1v.88h-1.848v-.418c0-.22-.014-.36-.044-.418-.014-.073-.088-.161-.22-.264-.132-.103-.234-.161-.308-.176-.073-.03-.242-.044-.506-.044h-4.224c-.264 0-.432.015-.506.044-.073.015-.176.073-.308.176s-.212.19-.242.264a2.319 2.319 0 00-.022.418v3.476c0 .22.008.367.022.44.03.059.11.14.242.242.132.103.235.169.308.198.074.015.242.022.506.022h5.258c.352 0 .704.147 1.056.44l.528.44c.352.293.528.66.528 1.1v4.62c0 .44-.176.807-.528 1.1l-.528.44c-.352.293-.704.44-1.056.44h-6.292c-.352 0-.704-.147-1.056-.44l-.528-.44c-.352-.293-.528-.66-.528-1.1v-.88h1.848v.418c0 .22.008.367.022.44.03.059.11.14.242.242.132.103.235.169.308.198.074.015.242.022.506.022h4.664c.264 0 .433-.007.506-.022.074-.03.176-.095.308-.198.132-.103.206-.183.22-.242.03-.073.044-.22.044-.44V9.362c0-.22-.014-.36-.044-.418-.014-.073-.088-.161-.22-.264-.132-.103-.234-.161-.308-.176-.073-.03-.242-.044-.506-.044zM36.044.1h1.848v15.4h-1.848V.1zm8.364 0h8.052c.352 0 .704.147 1.056.44l.528.44c.352.293.528.66.528 1.1v11.44c0 .44-.176.807-.528 1.1l-.528.44c-.352.293-.704.44-1.056.44h-8.052c-.352 0-.704-.147-1.056-.44l-.528-.44c-.352-.293-.528-.66-.528-1.1V2.08c0-.44.176-.807.528-1.1l.528-.44c.352-.293.704-.44 1.056-.44zm8.316 12.958V2.542c0-.22-.015-.36-.044-.418-.015-.073-.088-.161-.22-.264-.132-.103-.235-.161-.308-.176-.074-.03-.242-.044-.506-.044h-6.424c-.264 0-.433.015-.506.044-.074.015-.176.073-.308.176s-.213.19-.242.264a2.319 2.319 0 00-.022.418v10.516c0 .22.007.367.022.44.029.059.11.14.242.242.132.103.234.169.308.198.073.015.242.022.506.022h6.424c.264 0 .432-.007.506-.022.073-.03.176-.095.308-.198.132-.103.205-.183.22-.242.029-.073.044-.22.044-.44zm16.144-.418l.066-.022a3.754 3.754 0 01-.154-1.056V.1h1.848v15.4H68.78L60.728 3.136l-.066.022c.102.352.154.704.154 1.056V15.5h-1.848V.1h1.848l8.052 12.54z"/>
</svg>
