<svg xmlns="http://www.w3.org/2000/svg" width="78" height="41" fill="none" viewBox="0 0 78 41">
  <path fill="#EE324B" d="M49.344 14.491c-.739.32-1.52.532-2.32.627a4 4 0 001.777-2.198 8.109 8.109 0 01-2.565.964 4.067 4.067 0 00-2.95-1.26c-2.232 0-4.038 1.78-4.038 3.975-.002.305.033.61.104.907a11.512 11.512 0 01-8.326-4.155 3.924 3.924 0 00-.55 1.997c0 1.378.72 2.597 1.805 3.31a4 4 0 01-1.836-.496v.05c0 1.927 1.394 3.53 3.24 3.896-.347.092-.705.139-1.064.139a3.87 3.87 0 01-.76-.074c.514 1.58 2.007 2.728 3.776 2.76a8.186 8.186 0 01-5.98 1.645 11.43 11.43 0 006.182 1.797c7.439 0 11.502-6.058 11.502-11.312 0-.173-.004-.345-.012-.513a8.145 8.145 0 002.015-2.059z"/>
  <path fill="#EE324B" stroke="#EE324B" stroke-width="2" d="M2 40L26.241 1H76L51.759 40H2z"/>
  <g clip-path="url(#clip0_58_823)">
    <path fill="#fff" d="M28.5 23.958v-6.916c.016-.065.027-.13.033-.197.024-.812.061-1.622.26-2.414.449-1.788 1.486-3.09 3.191-3.827.925-.4 1.909-.475 2.904-.556.217-.018.436-.032.654-.048h6.916c.065.016.13.027.197.033.812.024 1.622.061 2.414.26 1.788.449 3.09 1.486 3.827 3.191.4.925.516 1.908.556 2.903.01.219.032.437.048.655v6.916c-.016.065-.027.13-.033.197-.024.812-.061 1.622-.26 2.414-.449 1.789-1.486 3.09-3.191 3.827-.925.4-1.908.516-2.904.556-.218.01-.436.032-.654.048h-6.916a1.338 1.338 0 00-.197-.033c-.812-.024-1.622-.061-2.414-.26-1.788-.449-3.09-1.486-3.827-3.191-.4-.925-.516-1.908-.556-2.903-.01-.219-.032-.437-.048-.655zm1.878-3.458h.032c0 .875-.017 1.75.005 2.625.02.825.051 1.651.135 2.47.081.793.36 1.52.898 2.134.74.843 1.712 1.198 2.786 1.264 1.239.076 2.482.094 3.723.11 1.222.014 2.444.01 3.667-.016a30.4 30.4 0 002.47-.134c.792-.081 1.52-.361 2.133-.9.844-.739 1.2-1.71 1.265-2.785.076-1.238.094-2.481.109-3.723.015-1.222.01-2.444-.015-3.667a30.307 30.307 0 00-.135-2.47c-.083-.792-.36-1.52-.898-2.133-.74-.844-1.712-1.2-2.786-1.265-1.239-.075-2.482-.094-3.723-.109a95.984 95.984 0 00-3.666.017c-.907.023-1.823.041-2.716.18-1.527.239-2.56 1.122-2.972 2.637a6.92 6.92 0 00-.223 1.54c-.05 1.406-.062 2.815-.09 4.225z"/>
    <path fill="#fff" d="M39.01 15.104a5.394 5.394 0 015.386 5.416 5.392 5.392 0 01-5.406 5.375 5.392 5.392 0 01-5.386-5.416c.006-2.972 2.425-5.379 5.405-5.375zm-.004 1.903c-1.913 0-3.497 1.562-3.5 3.45 0 1.949 1.547 3.534 3.456 3.536 1.954 0 3.53-1.552 3.53-3.482 0-1.93-1.561-3.504-3.486-3.504zM45.868 14.901a1.267 1.267 0 11-2.533-.006 1.267 1.267 0 012.533.006z"/>
  </g>
  <defs>
    <clipPath id="clip0_58_823">
      <path fill="#fff" d="M0 0h21v21H0z" transform="translate(28.5 10)"/>
    </clipPath>
  </defs>
</svg>
